<mxfile host="app.diagrams.net" modified="2023-11-30T03:10:56.099Z" agent="Mozilla/5.0 (Macintosh; Intel Mac OS X 10_15_7) AppleWebKit/537.36 (KHTML, like Gecko) Chrome/119.0.0.0 Safari/537.36" etag="iYxLJWdTlb6qOqs6eclF" version="22.1.4" type="github">
  <diagram name="第 1 页" id="wMBq58jxj7TZekm_dWzr">
    <mxGraphModel dx="1853" dy="576" grid="1" gridSize="10" guides="1" tooltips="1" connect="1" arrows="1" fold="1" page="1" pageScale="1" pageWidth="827" pageHeight="1169" math="0" shadow="0">
      <root>
        <mxCell id="0" />
        <mxCell id="1" parent="0" />
        <mxCell id="zNO3inHTsQPZRsrdVChj-12" value="" style="edgeStyle=orthogonalEdgeStyle;rounded=0;orthogonalLoop=1;jettySize=auto;html=1;" parent="1" edge="1">
          <mxGeometry relative="1" as="geometry">
            <mxPoint x="430" y="180" as="sourcePoint" />
          </mxGeometry>
        </mxCell>
        <mxCell id="zNO3inHTsQPZRsrdVChj-13" value="组装此运维行为对应的指令&lt;br&gt;请求UeServer" style="edgeLabel;html=1;align=center;verticalAlign=middle;resizable=0;points=[];" parent="zNO3inHTsQPZRsrdVChj-12" vertex="1" connectable="0">
          <mxGeometry x="-0.4" y="1" relative="1" as="geometry">
            <mxPoint x="-1" y="6" as="offset" />
          </mxGeometry>
        </mxCell>
        <mxCell id="zNO3inHTsQPZRsrdVChj-33" value="" style="rounded=0;whiteSpace=wrap;html=1;fillColor=#fff2cc;strokeColor=#d6b656;" parent="1" vertex="1">
          <mxGeometry x="210" y="120" width="530" height="260" as="geometry" />
        </mxCell>
        <mxCell id="zNO3inHTsQPZRsrdVChj-38" value="UEServer" style="rounded=0;whiteSpace=wrap;html=1;" parent="1" vertex="1">
          <mxGeometry x="220" y="310" width="120" height="60" as="geometry" />
        </mxCell>
        <mxCell id="zNO3inHTsQPZRsrdVChj-39" value="日审Server" style="rounded=0;whiteSpace=wrap;html=1;" parent="1" vertex="1">
          <mxGeometry x="350" y="310" width="120" height="60" as="geometry" />
        </mxCell>
        <mxCell id="zNO3inHTsQPZRsrdVChj-40" value="数审Server" style="rounded=0;whiteSpace=wrap;html=1;" parent="1" vertex="1">
          <mxGeometry x="480" y="310" width="120" height="60" as="geometry" />
        </mxCell>
        <mxCell id="zNO3inHTsQPZRsrdVChj-41" value="Edr Server" style="rounded=0;whiteSpace=wrap;html=1;" parent="1" vertex="1">
          <mxGeometry x="610" y="310" width="120" height="60" as="geometry" />
        </mxCell>
        <mxCell id="zNO3inHTsQPZRsrdVChj-42" value="&lt;font style=&quot;font-size: 16px;&quot;&gt;&lt;b style=&quot;font-size: 16px;&quot;&gt;安恒云域&lt;/b&gt;&lt;/font&gt;" style="text;html=1;strokeColor=none;fillColor=none;align=center;verticalAlign=middle;whiteSpace=wrap;rounded=0;fontSize=16;" parent="1" vertex="1">
          <mxGeometry x="640" y="140" width="80" height="30" as="geometry" />
        </mxCell>
        <mxCell id="zNO3inHTsQPZRsrdVChj-45" style="edgeStyle=orthogonalEdgeStyle;rounded=0;orthogonalLoop=1;jettySize=auto;html=1;" parent="1" source="zNO3inHTsQPZRsrdVChj-44" target="zNO3inHTsQPZRsrdVChj-38" edge="1">
          <mxGeometry relative="1" as="geometry" />
        </mxCell>
        <mxCell id="zNO3inHTsQPZRsrdVChj-47" value="2.组装运维行为对应指令" style="edgeLabel;html=1;align=center;verticalAlign=middle;resizable=0;points=[];" parent="zNO3inHTsQPZRsrdVChj-45" vertex="1" connectable="0">
          <mxGeometry x="-0.06" y="3" relative="1" as="geometry">
            <mxPoint as="offset" />
          </mxGeometry>
        </mxCell>
        <mxCell id="zNO3inHTsQPZRsrdVChj-44" value="UEManager" style="rounded=0;whiteSpace=wrap;html=1;" parent="1" vertex="1">
          <mxGeometry x="220" y="150" width="120" height="60" as="geometry" />
        </mxCell>
        <mxCell id="zNO3inHTsQPZRsrdVChj-52" value="" style="rounded=0;whiteSpace=wrap;html=1;fillColor=#d5e8d4;strokeColor=#82b366;" parent="1" vertex="1">
          <mxGeometry x="-140" y="493.5" width="490" height="430" as="geometry" />
        </mxCell>
        <mxCell id="zNO3inHTsQPZRsrdVChj-85" style="edgeStyle=orthogonalEdgeStyle;rounded=0;orthogonalLoop=1;jettySize=auto;html=1;entryX=0.5;entryY=1;entryDx=0;entryDy=0;" parent="1" source="zNO3inHTsQPZRsrdVChj-46" target="zNO3inHTsQPZRsrdVChj-39" edge="1">
          <mxGeometry relative="1" as="geometry">
            <mxPoint x="400" y="410" as="targetPoint" />
            <Array as="points">
              <mxPoint x="410" y="538" />
            </Array>
          </mxGeometry>
        </mxCell>
        <mxCell id="zNO3inHTsQPZRsrdVChj-86" value="3.2 对server连通性测试" style="edgeLabel;html=1;align=center;verticalAlign=middle;resizable=0;points=[];" parent="zNO3inHTsQPZRsrdVChj-85" vertex="1" connectable="0">
          <mxGeometry x="0.2213" relative="1" as="geometry">
            <mxPoint x="-5" y="-30" as="offset" />
          </mxGeometry>
        </mxCell>
        <mxCell id="UXK1C_oignjXM_dTzYS3-2" style="edgeStyle=orthogonalEdgeStyle;rounded=0;orthogonalLoop=1;jettySize=auto;html=1;entryX=0.5;entryY=1;entryDx=0;entryDy=0;dashed=1;" edge="1" parent="1" source="zNO3inHTsQPZRsrdVChj-46" target="zNO3inHTsQPZRsrdVChj-38">
          <mxGeometry relative="1" as="geometry">
            <Array as="points">
              <mxPoint x="280" y="410" />
              <mxPoint x="280" y="410" />
            </Array>
          </mxGeometry>
        </mxCell>
        <mxCell id="UXK1C_oignjXM_dTzYS3-3" value="控制链路" style="edgeLabel;html=1;align=center;verticalAlign=middle;resizable=0;points=[];" vertex="1" connectable="0" parent="UXK1C_oignjXM_dTzYS3-2">
          <mxGeometry x="-0.1286" y="1" relative="1" as="geometry">
            <mxPoint x="11" as="offset" />
          </mxGeometry>
        </mxCell>
        <mxCell id="zNO3inHTsQPZRsrdVChj-46" value="UeProxy" style="rounded=0;whiteSpace=wrap;html=1;" parent="1" vertex="1">
          <mxGeometry x="220" y="510" width="120" height="55" as="geometry" />
        </mxCell>
        <mxCell id="zNO3inHTsQPZRsrdVChj-22" value="" style="rounded=0;whiteSpace=wrap;html=1;fillColor=#dae8fc;strokeColor=#6c8ebf;" parent="1" vertex="1">
          <mxGeometry x="-100" y="630" width="250" height="230" as="geometry" />
        </mxCell>
        <mxCell id="zNO3inHTsQPZRsrdVChj-24" value="日审Agent" style="rounded=0;whiteSpace=wrap;html=1;" parent="1" vertex="1">
          <mxGeometry x="-90" y="690" width="80" height="37" as="geometry" />
        </mxCell>
        <mxCell id="zNO3inHTsQPZRsrdVChj-25" value="数审Agent" style="rounded=0;whiteSpace=wrap;html=1;" parent="1" vertex="1">
          <mxGeometry x="-90" y="749" width="80" height="37" as="geometry" />
        </mxCell>
        <mxCell id="zNO3inHTsQPZRsrdVChj-26" value="Edr Agent" style="rounded=0;whiteSpace=wrap;html=1;" parent="1" vertex="1">
          <mxGeometry x="-90" y="800" width="80" height="37" as="geometry" />
        </mxCell>
        <mxCell id="zNO3inHTsQPZRsrdVChj-64" style="edgeStyle=orthogonalEdgeStyle;rounded=0;orthogonalLoop=1;jettySize=auto;html=1;entryX=1;entryY=0.5;entryDx=0;entryDy=0;" parent="1" source="zNO3inHTsQPZRsrdVChj-27" target="zNO3inHTsQPZRsrdVChj-25" edge="1">
          <mxGeometry relative="1" as="geometry">
            <Array as="points">
              <mxPoint x="70" y="768" />
              <mxPoint x="10" y="768" />
            </Array>
          </mxGeometry>
        </mxCell>
        <mxCell id="zNO3inHTsQPZRsrdVChj-65" value="3.1.2抓取本机对应&lt;br&gt;端口数据包" style="edgeLabel;html=1;align=center;verticalAlign=middle;resizable=0;points=[];labelBackgroundColor=default;labelBorderColor=none;" parent="zNO3inHTsQPZRsrdVChj-64" vertex="1" connectable="0">
          <mxGeometry relative="1" as="geometry">
            <mxPoint x="16" y="-23" as="offset" />
          </mxGeometry>
        </mxCell>
        <mxCell id="zNO3inHTsQPZRsrdVChj-67" style="edgeStyle=orthogonalEdgeStyle;rounded=0;orthogonalLoop=1;jettySize=auto;html=1;entryX=0.5;entryY=1;entryDx=0;entryDy=0;" parent="1" source="zNO3inHTsQPZRsrdVChj-27" target="zNO3inHTsQPZRsrdVChj-46" edge="1">
          <mxGeometry relative="1" as="geometry">
            <Array as="points">
              <mxPoint x="280" y="685" />
            </Array>
          </mxGeometry>
        </mxCell>
        <mxCell id="zNO3inHTsQPZRsrdVChj-68" value="3.1.1 对业务端口进行链路检测" style="edgeLabel;html=1;align=center;verticalAlign=middle;resizable=0;points=[];labelBackgroundColor=default;" parent="zNO3inHTsQPZRsrdVChj-67" vertex="1" connectable="0">
          <mxGeometry x="-0.2421" y="1" relative="1" as="geometry">
            <mxPoint x="70" y="-33" as="offset" />
          </mxGeometry>
        </mxCell>
        <mxCell id="zNO3inHTsQPZRsrdVChj-90" value="代理模式" style="edgeLabel;html=1;align=center;verticalAlign=middle;resizable=0;points=[];" parent="zNO3inHTsQPZRsrdVChj-67" vertex="1" connectable="0">
          <mxGeometry x="-0.8588" y="4" relative="1" as="geometry">
            <mxPoint x="146" y="-70" as="offset" />
          </mxGeometry>
        </mxCell>
        <mxCell id="zNO3inHTsQPZRsrdVChj-87" style="edgeStyle=orthogonalEdgeStyle;rounded=0;orthogonalLoop=1;jettySize=auto;html=1;entryX=0.5;entryY=1;entryDx=0;entryDy=0;" parent="1" source="zNO3inHTsQPZRsrdVChj-27" target="zNO3inHTsQPZRsrdVChj-41" edge="1">
          <mxGeometry relative="1" as="geometry">
            <mxPoint x="540" y="400" as="targetPoint" />
            <Array as="points">
              <mxPoint x="670" y="700" />
            </Array>
          </mxGeometry>
        </mxCell>
        <mxCell id="zNO3inHTsQPZRsrdVChj-88" value="3.1.1&amp;nbsp; 对业务端口进行链路测试" style="edgeLabel;html=1;align=center;verticalAlign=middle;resizable=0;points=[];" parent="zNO3inHTsQPZRsrdVChj-87" vertex="1" connectable="0">
          <mxGeometry x="-0.1821" y="-2" relative="1" as="geometry">
            <mxPoint x="32" y="-2" as="offset" />
          </mxGeometry>
        </mxCell>
        <mxCell id="zNO3inHTsQPZRsrdVChj-89" value="直连模式" style="edgeLabel;html=1;align=center;verticalAlign=middle;resizable=0;points=[];" parent="zNO3inHTsQPZRsrdVChj-87" vertex="1" connectable="0">
          <mxGeometry x="0.6806" y="1" relative="1" as="geometry">
            <mxPoint as="offset" />
          </mxGeometry>
        </mxCell>
        <mxCell id="zNO3inHTsQPZRsrdVChj-27" value="UeAgent" style="rounded=0;whiteSpace=wrap;html=1;" parent="1" vertex="1">
          <mxGeometry x="20" y="660" width="100" height="60" as="geometry" />
        </mxCell>
        <mxCell id="zNO3inHTsQPZRsrdVChj-30" value="&lt;b&gt;&lt;font style=&quot;font-size: 14px;&quot;&gt;资产机&lt;/font&gt;&lt;/b&gt;" style="text;html=1;strokeColor=none;fillColor=none;align=center;verticalAlign=middle;whiteSpace=wrap;rounded=0;" parent="1" vertex="1">
          <mxGeometry x="70" y="800" width="60" height="30" as="geometry" />
        </mxCell>
        <mxCell id="zNO3inHTsQPZRsrdVChj-53" value="客户资产域" style="text;html=1;strokeColor=none;fillColor=none;align=center;verticalAlign=middle;whiteSpace=wrap;rounded=0;fontStyle=1;fontSize=16;" parent="1" vertex="1">
          <mxGeometry x="237" y="830" width="86" height="30" as="geometry" />
        </mxCell>
        <mxCell id="zNO3inHTsQPZRsrdVChj-56" style="edgeStyle=orthogonalEdgeStyle;rounded=0;orthogonalLoop=1;jettySize=auto;html=1;" parent="1" source="zNO3inHTsQPZRsrdVChj-38" target="zNO3inHTsQPZRsrdVChj-46" edge="1">
          <mxGeometry relative="1" as="geometry">
            <Array as="points">
              <mxPoint x="260" y="450" />
              <mxPoint x="260" y="450" />
            </Array>
          </mxGeometry>
        </mxCell>
        <mxCell id="zNO3inHTsQPZRsrdVChj-57" value="3.下发指令:&lt;br&gt;链路测试、抓包、连通性测试" style="edgeLabel;html=1;align=center;verticalAlign=middle;resizable=0;points=[];" parent="zNO3inHTsQPZRsrdVChj-56" vertex="1" connectable="0">
          <mxGeometry x="-0.5686" y="-1" relative="1" as="geometry">
            <mxPoint x="-69" y="20" as="offset" />
          </mxGeometry>
        </mxCell>
        <mxCell id="zNO3inHTsQPZRsrdVChj-74" style="edgeStyle=orthogonalEdgeStyle;rounded=0;orthogonalLoop=1;jettySize=auto;html=1;entryX=0;entryY=0.5;entryDx=0;entryDy=0;" parent="1" source="zNO3inHTsQPZRsrdVChj-72" target="zNO3inHTsQPZRsrdVChj-44" edge="1">
          <mxGeometry relative="1" as="geometry" />
        </mxCell>
        <mxCell id="zNO3inHTsQPZRsrdVChj-75" value="1.操作页面的运维行为" style="edgeLabel;html=1;align=center;verticalAlign=middle;resizable=0;points=[];" parent="zNO3inHTsQPZRsrdVChj-74" vertex="1" connectable="0">
          <mxGeometry x="-0.1143" y="-2" relative="1" as="geometry">
            <mxPoint x="12" y="-2" as="offset" />
          </mxGeometry>
        </mxCell>
        <mxCell id="zNO3inHTsQPZRsrdVChj-72" value="运维人员" style="shape=umlActor;verticalLabelPosition=bottom;verticalAlign=top;html=1;outlineConnect=0;" parent="1" vertex="1">
          <mxGeometry x="-40" y="145" width="40" height="70" as="geometry" />
        </mxCell>
        <mxCell id="zNO3inHTsQPZRsrdVChj-82" style="edgeStyle=orthogonalEdgeStyle;rounded=0;orthogonalLoop=1;jettySize=auto;html=1;entryX=0.58;entryY=0;entryDx=0;entryDy=0;entryPerimeter=0;" parent="1" source="zNO3inHTsQPZRsrdVChj-46" target="zNO3inHTsQPZRsrdVChj-27" edge="1">
          <mxGeometry relative="1" as="geometry">
            <Array as="points">
              <mxPoint x="78" y="538" />
            </Array>
          </mxGeometry>
        </mxCell>
        <mxCell id="zNO3inHTsQPZRsrdVChj-83" value="3.1下发指令:链路测试、抓包" style="edgeLabel;html=1;align=center;verticalAlign=middle;resizable=0;points=[];" parent="zNO3inHTsQPZRsrdVChj-82" vertex="1" connectable="0">
          <mxGeometry x="-0.281" y="-2" relative="1" as="geometry">
            <mxPoint as="offset" />
          </mxGeometry>
        </mxCell>
      </root>
    </mxGraphModel>
  </diagram>
</mxfile>
